<?xml version="1.0" standalone="no"?>
<!DOCTYPE svg PUBLIC "-//W3C//DTD SVG 1.1//EN" "http://www.w3.org/Graphics/SVG/1.1/DTD/svg11.dtd" >
<svg xmlns="http://www.w3.org/2000/svg">
<metadata>Generated by IcoMoon</metadata>
<defs>
<font id="icomoon" horiz-adv-x="1024">
<font-face units-per-em="1024" ascent="960" descent="-64" />
<missing-glyph horiz-adv-x="1024" />
<glyph unicode="&#x20;" horiz-adv-x="512" d="" />
<glyph unicode="&#xe900;" glyph-name="arrow-right" d="M53.909 498.182h757.273l-78.273 76.364v94.181l203.632-211.273v-2.545l-203.632-211.273v94.182l77 75.091h-756v85.272z" />
<glyph unicode="&#xe901;" glyph-name="book" d="M895.995 746.666c-47.36 14.934-99.41 21.334-149.33 21.334-83.2 0-172.8-17.066-234.669-64-61.866 46.934-151.466 64-234.666 64s-172.8-17.066-234.667-64v-625.065c0-10.67 10.667-21.335 21.333-21.335 4.266 0 6.4 2.135 10.666 2.135 57.6 27.73 140.8 46.93 202.667 46.93 83.2 0 172.8-17.065 234.666-64 57.599 36.27 162.134 64 234.669 64 70.4 0 142.93-12.8 202.665-44.8 4.265-2.13 6.4-2.13 10.665-2.13 10.67 0 21.335 10.665 21.335 21.33v622.935c-25.6 19.2-53.335 32-85.335 42.666zM895.995 170.665c-46.93 14.935-98.13 21.335-149.33 21.335-72.535 0-177.070-27.735-234.669-64v490.666c57.599 36.267 162.134 64 234.669 64 51.2 0 102.4-6.4 149.33-21.333v-490.669zM746.665 512c37.545 0 73.81-3.84 106.665-11.094v64.854c-33.705 6.4-69.975 10.24-106.665 10.24-72.535 0-138.24-12.374-192-35.414v-70.826c48.21 27.306 115.2 42.24 192 42.24zM554.665 427.095v-70.83c48.21 27.31 115.2 42.24 192 42.24 37.545 0 73.81-3.84 106.665-11.090v64.851c-33.705 6.4-69.975 10.24-106.665 10.24-72.535 0-138.24-12.8-192-35.411zM746.665 348.585c-72.535 0-138.24-12.37-192-35.41v-70.83c48.21 27.31 115.2 42.24 192 42.24 37.545 0 73.81-3.84 106.665-11.090v64.85c-33.705 6.83-69.975 10.24-106.665 10.24z" />
<glyph unicode="&#xe902;" glyph-name="doble-arrow" d="M170.662 192l362.668 256-362.668 256v-512zM554.665 704v-512l362.665 256-362.665 256z" />
<glyph unicode="&#xe903;" glyph-name="embed" d="M388.738 229.926l-218.074 218.074 218.074 218.074-66.37 66.371-284.445-284.444 284.445-284.444 66.37 66.371zM635.255 229.926l218.078 218.074-218.078 218.074 66.372 66.371 284.444-284.444-284.444-284.444-66.372 66.371z" />
<glyph unicode="&#xe904;" glyph-name="export" d="M825.6 531.631c-29.015 147.2-158.295 257.707-313.6 257.707-123.306 0-230.4-69.974-283.734-172.374-128.426-13.654-228.266-122.454-228.266-254.294 0-141.225 114.774-256 256-256h554.665c117.76 0 213.335 95.575 213.335 213.335 0 112.64-87.465 203.945-198.4 211.625zM810.665 192.005h-554.665c-94.294 0-170.666 76.37-170.666 170.665 0 87.468 65.28 160.428 151.893 169.388l45.654 4.693 21.334 40.534c40.533 78.080 119.893 126.72 207.786 126.72 111.785 0 208.215-79.36 229.975-189.014l12.8-64 65.28-4.696c66.56-4.265 118.61-60.16 118.61-126.29 0-70.4-57.6-128-128-128zM573.865 533.338h-123.731v-128.003h-108.8l170.666-170.665 170.665 170.665h-108.8v128.003z" />
<glyph unicode="&#xe905;" glyph-name="integrated" d="M843.85 817.776h-198.161c-19.911 54.993-72.059 94.815-133.689 94.815s-113.778-39.822-133.689-94.815h-198.163c-6.637 0-12.8-0.474-18.963-1.896-18.489-3.793-35.081-13.274-47.881-26.074-8.533-8.533-15.644-18.963-20.385-30.341-4.741-10.904-7.585-23.229-7.585-36.504v-663.705c0-12.8 2.844-25.6 7.585-36.978s11.852-21.333 20.385-30.339c12.8-12.8 29.392-22.283 47.881-26.072 6.163-0.95 12.326-1.422 18.963-1.422h663.702c52.15 0 94.817 42.667 94.817 94.811v663.705c0 52.148-42.667 94.815-94.817 94.815zM431.407 254.578c-18.489-18.489-48.829-18.489-67.318 0l-102.874 102.872c-18.489 18.489-18.489 48.355 0 66.844l102.874 102.874c18.489 18.489 48.829 18.489 67.318 0s18.489-48.356 0-66.844l-69.689-69.213 69.215-69.217c18.489-18.489 18.963-48.828 0.474-67.317zM512 758.516c-19.437 0-35.556 16.119-35.556 35.556s16.118 35.556 35.556 35.556c19.437 0 35.556-16.118 35.556-35.556s-16.118-35.556-35.556-35.556zM592.593 254.578c-18.489 18.489-18.489 48.356 0 66.844l69.691 69.689-69.691 69.687c-18.489 18.489-18.489 48.356 0 66.844s48.829 18.489 67.318 0l102.872-102.874c18.489-18.489 18.489-48.357 0-66.846l-102.872-102.872c-18.489-18.961-48.829-18.961-67.318-0.472z" />
<glyph unicode="&#xe906;" glyph-name="plus" d="M810.67 405.335h-256v-256h-85.332v256h-256v85.332h256v256h85.332v-256h256v-85.332z" />
<glyph unicode="&#xe907;" glyph-name="rayo" d="M469.33 64h-42.666l42.666 298.665h-149.334c-24.746 0-24.32 13.655-16.213 28.16 8.106 14.51 2.133 3.415 2.986 5.12 55.040 97.282 137.814 242.349 247.895 436.055h42.665l-42.665-298.666h149.33c20.91 0 23.895-14.080 20.055-21.76l-2.985-6.4c-168.11-293.974-251.735-441.174-251.735-441.174z" />
<glyph unicode="&#xe908;" glyph-name="return" d="M512.005 874.669c-235.521 0-426.668-191.146-426.668-426.666 0-235.522 191.146-426.667 426.668-426.667 235.52 0 426.665 191.145 426.665 426.667 0 235.52-191.145 426.666-426.665 426.666zM550.83 185.6c-13.225-13.225-36.265-3.84-36.265 14.935v34.135c-0.855 0-1.71 0-2.56 0-54.615 0-109.228 20.905-151.041 62.29-61.014 61.015-77.226 150.19-48.64 226.136 8.106 21.76 36.694 27.306 52.906 10.666 9.387-9.386 11.52-23.040 7.254-34.986-19.626-52.905-8.534-114.345 34.134-157.016 29.866-29.865 69.12-43.945 108.372-43.090v40.105c0 19.2 23.040 28.585 36.265 14.935l69.12-69.12c8.535-8.535 8.535-21.76 0-30.295l-69.545-68.695zM658.775 361.815c-9.385 9.385-11.52 23.040-7.25 34.985 19.625 52.909 8.53 114.349-34.135 157.016-29.865 29.866-69.12 44.373-107.946 43.52v-40.107c0-19.2-23.040-28.586-36.266-14.933l-69.547 68.693c-8.533 8.534-8.533 21.76 0 30.294l69.12 69.12c13.227 13.226 36.267 3.84 36.267-14.934v-34.56c55.468 0.854 111.357-19.2 153.597-61.866 61.015-61.014 77.23-150.186 48.64-226.132-8.105-22.19-36.265-27.735-52.48-11.095z" />
<glyph unicode="&#xe909;" glyph-name="share" d="M768 273.915c-32.425 0-61.44-12.8-83.625-32.85l-304.215 177.065c2.134 9.815 3.84 19.625 3.84 29.865s-1.706 20.054-3.84 29.868l300.8 175.36c23.040-21.333 53.335-34.56 87.040-34.56 70.825 0 128 57.174 128 128s-57.175 128-128 128c-70.825 0-128-57.173-128-128 0-10.24 1.705-20.053 3.84-29.866l-300.8-175.36c-23.040 21.333-53.334 34.56-87.040 34.56-70.826 0-128-57.174-128-128.001 0-70.825 57.174-128 128-128 33.706 0 64 13.23 87.040 34.56l303.785-177.49c-2.13-8.96-3.41-18.35-3.41-27.735 0-68.695 55.89-124.585 124.585-124.585s124.585 55.89 124.585 124.585c0 68.695-55.89 124.585-124.585 124.585z" />
<glyph unicode="&#xe90a;" glyph-name="user" d="M512.007 448c125.724 0 227.556 101.831 227.556 227.556s-101.832 227.555-227.556 227.555c-125.724 0-227.556-101.831-227.556-227.555s101.832-227.556 227.556-227.556zM512.007 334.223c-151.893 0-455.111-76.232-455.111-227.556v-113.775h910.221v113.775c0 151.324-303.217 227.556-455.11 227.556z" />
<glyph unicode="&#xe90b;" glyph-name="Group-3" d="M350.188 569.58l161.812 35.958 161.812-35.958c4.374-0.973 8.285-3.407 11.087-6.9 2.804-3.493 4.332-7.84 4.332-12.32v-196.667c-0.002-19.45-4.805-38.601-13.984-55.749s-22.449-31.766-38.634-42.555l-124.613-83.082-124.613 83.082c-16.181 10.787-29.45 25.401-38.63 42.545-9.179 17.146-13.984 36.291-13.987 55.739v196.687c0 4.48 1.528 8.826 4.332 12.32 2.802 3.493 6.713 5.927 11.087 6.9v0zM374.154 534.567v-180.874c0-12.967 3.202-25.732 9.32-37.165 6.116-11.431 14.964-21.177 25.752-28.371l102.774-68.529 102.774 68.529c10.785 7.192 19.629 16.933 25.748 28.363 6.118 11.427 9.32 24.19 9.324 37.153v180.894l-137.846 30.602-137.846-30.602zM512 408.615c-13.056 0-25.578 5.187-34.812 14.419-9.232 9.234-14.419 21.756-14.419 34.812s5.187 25.578 14.419 34.812c9.234 9.232 21.756 14.419 34.812 14.419s25.578-5.187 34.812-14.419c9.232-9.234 14.419-21.756 14.419-34.812s-5.187-25.578-14.419-34.812c-9.234-9.232-21.756-14.419-34.812-14.419v0zM423.916 310.154c2.387 21.693 12.696 41.742 28.95 56.306 16.254 14.562 37.311 22.617 59.134 22.617s42.88-8.054 59.134-22.617c16.254-14.564 26.563-34.613 28.95-56.306h-176.167z" />
<glyph unicode="&#xe90c;" d="M512 960l486.942-353.784-185.996-572.432h-601.891l-185.995 572.432 486.941 353.784z" />
<glyph unicode="&#xe90d;" d="M388.34 391.148c15.388 15.388 36.257 24.031 58.019 24.031h131.281c21.762 0 42.632-8.643 58.019-24.031s24.032-36.259 24.032-58.019v-32.821c0-9.062-7.347-16.41-16.41-16.41s-16.412 7.347-16.412 16.41v32.821c0 13.056-5.187 25.578-14.419 34.81-9.232 9.234-21.754 14.421-34.812 14.421h-131.281c-13.058 0-25.58-5.187-34.812-14.421-9.232-9.232-14.419-21.754-14.419-34.81v-32.821c0-9.062-7.347-16.41-16.412-16.41-9.062 0-16.41 7.347-16.41 16.41v32.821c0 21.76 8.645 42.632 24.032 58.019z" />
<glyph unicode="&#xe90e;" d="M512 579.283c-27.189 0-49.231-22.042-49.231-49.231s22.042-49.231 49.231-49.231c27.189 0 49.231 22.042 49.231 49.231s-22.042 49.231-49.231 49.231zM429.948 530.052c0 45.316 36.736 82.050 82.052 82.050s82.052-36.734 82.052-82.050c0-45.316-36.736-82.052-82.052-82.052s-82.052 36.736-82.052 82.052z" />
<glyph unicode="&#xe90f;" glyph-name="search" d="M976.447 59.113l-180.89 180.884c58.419 74.564 90.044 166.615 89.776 261.336 0 84.387-25.025 166.878-71.908 237.043s-113.516 124.852-191.482 157.145c-77.962 32.294-163.75 40.743-246.515 24.28s-158.79-57.099-218.461-116.769c-59.67-59.671-100.306-135.695-116.769-218.461s-8.014-168.553 24.28-246.515c32.293-77.966 86.98-144.6 157.145-191.482s152.656-71.908 237.043-71.908c94.721-0.267 186.772 31.357 261.336 89.776l180.884-180.89c10.069-9.933 23.637-15.502 37.78-15.502s27.716 5.569 37.78 15.502c4.972 4.955 8.914 10.843 11.605 17.328 2.691 6.48 4.079 13.431 4.079 20.452s-1.388 13.972-4.079 20.452c-2.691 6.485-6.633 12.373-11.605 17.328zM138.667 501.333c0 63.29 18.768 125.158 53.93 177.782s85.139 93.639 143.611 117.859c58.472 24.22 122.813 30.557 184.888 18.21 62.072-12.347 119.092-42.824 163.846-87.577 44.749-44.753 75.23-101.771 87.575-163.845 12.351-62.074 6.013-126.415-18.21-184.888-24.218-58.47-65.234-108.447-117.857-143.61s-114.493-53.931-177.783-53.931c-84.833 0.119-166.158 33.872-226.144 93.855s-93.738 141.311-93.856 226.145z" />
<glyph unicode="&#xe910;" glyph-name="book1" horiz-adv-x="1166" d="M1070.060 933.239l-323.081-0.056c-31.36-0.008-62.29-7.526-90.337-21.957-28.043-14.431-52.426-35.378-71.214-61.178-18.782 25.793-43.159 46.732-71.196 61.154-28.041 14.422-58.968 21.929-90.331 21.925l-323.077-0.056c-21.414-0.029-41.945-8.781-57.090-24.337s-23.666-36.644-23.694-58.64l-0.112-663.704c0.021-21.996 8.535-43.079 23.674-58.63s35.668-24.297 57.081-24.317l323.077 0.054c32.122-0.031 62.913-13.15 85.623-36.474 22.71-23.327 35.479-54.955 35.51-87.947 0-11.002 4.252-21.552 11.824-29.332 7.572-7.777 17.843-12.146 28.555-12.143 10.709 0 20.983 4.372 28.558 12.154 7.575 7.78 11.83 18.332 11.833 29.332 0.043 32.996 12.823 64.629 35.541 87.962 22.716 23.333 53.513 36.463 85.632 36.506l323.081 0.054c21.413 0.028 41.944 8.781 57.088 24.337s23.666 36.645 23.694 58.641l0.111 663.703c-0.020 21.995-8.533 43.081-23.674 58.632-15.138 15.551-35.666 24.296-57.079 24.317zM423.777 186.462l-323.077-0.057 0.112 663.703 323.077 0.056c32.122-0.032 62.913-13.15 85.623-36.476s35.479-54.954 35.51-87.948l-0.097-580.836c-34.901 27.022-77.434 41.611-121.148 41.557zM1069.932 186.573l-323.078-0.057c-43.713 0.040-86.255-14.572-121.159-41.614l0.097 580.853c0.043 32.993 12.823 64.626 35.541 87.96 22.716 23.334 53.513 36.462 85.635 36.506l323.078 0.056-0.114-663.703z" />
<glyph unicode="&#xe911;" glyph-name="out" horiz-adv-x="862" d="M851.796 437.584l-188.605-215.839c-3.336-3.816-7.297-6.845-11.652-8.909-4.36-2.070-9.033-3.131-13.749-3.131-4.721 0-9.394 1.062-13.749 3.131-4.36 2.064-8.321 5.093-11.657 8.909-3.336 3.821-5.982 8.354-7.788 13.339-1.805 4.991-2.732 10.337-2.732 15.737s0.927 10.741 2.732 15.732c1.805 4.991 4.452 9.523 7.788 13.339l127.278 145.653h-416.343c-9.528 0-18.665 4.332-25.403 12.041s-10.522 18.167-10.522 29.071c0 10.903 3.785 21.361 10.522 29.071s15.875 12.041 25.403 12.041h416.343l-127.278 145.653c-6.737 7.711-10.52 18.168-10.52 29.072s3.783 21.362 10.52 29.072c6.737 7.711 15.877 12.043 25.406 12.043s18.664-4.331 25.401-12.041l188.605-215.838c6.737-7.711 10.52-18.168 10.52-29.072s-3.783-21.362-10.52-29.072zM395.167 55.539h-323.318v822.238h323.318c9.528 0 18.665 4.332 25.403 12.042s10.522 18.167 10.522 29.070c0 10.904-3.785 21.361-10.522 29.071s-15.875 12.041-25.403 12.041h-323.318c-19.049-0.025-37.311-8.696-50.781-24.11s-21.046-36.314-21.068-58.114v-822.238c0.022-21.8 7.599-42.701 21.068-58.115s31.732-24.086 50.781-24.113h323.318c9.528 0 18.665 4.333 25.403 12.040 6.737 7.712 10.522 18.168 10.522 29.071 0 10.908-3.785 21.364-10.522 29.071-6.737 7.712-15.875 12.045-25.403 12.045z" />
<glyph unicode="&#xe912;" glyph-name="mail" horiz-adv-x="1339" d="M1309.456 927.527c-0.039 0.939-0.126 1.875-0.26 2.804-0.138 0.822-0.362 1.603-0.575 2.395-0.201 0.829-0.445 1.646-0.729 2.45-0.323 0.808-0.681 1.599-1.083 2.37-0.358 0.72-0.693 1.439-1.119 2.129-0.516 0.798-1.071 1.566-1.67 2.302-0.347 0.45-0.614 0.943-0.996 1.374-0.122 0.137-0.272 0.229-0.394 0.363-0.67 0.689-1.378 1.338-2.119 1.944-0.559 0.481-1.091 1.002-1.678 1.426-0.729 0.491-1.481 0.944-2.257 1.355-0.677 0.389-1.331 0.82-2.032 1.141-0.76 0.346-1.571 0.573-2.367 0.844-0.776 0.263-1.532 0.565-2.324 0.75-0.748 0.174-1.524 0.234-2.292 0.34-0.902 0.149-1.808 0.248-2.718 0.296-0.185 0.006-0.362 0.059-0.551 0.060l-1223.307 7.779c-0.187 0.001-0.355-0.048-0.542-0.052-0.947-0.038-1.892-0.128-2.83-0.271-0.729-0.095-1.466-0.141-2.173-0.296-0.85-0.214-1.689-0.473-2.513-0.775-0.736-0.245-1.49-0.443-2.195-0.753-0.761-0.334-1.471-0.786-2.204-1.197-0.715-0.405-1.451-0.771-2.127-1.244-0.616-0.433-1.176-0.964-1.761-1.458-0.73-0.586-1.429-1.212-2.093-1.873-0.125-0.134-0.275-0.224-0.401-0.361-0.388-0.426-0.659-0.916-1.013-1.362-0.607-0.728-1.173-1.488-1.698-2.279-0.434-0.688-0.784-1.404-1.149-2.12-0.394-0.772-0.791-1.535-1.11-2.351-0.31-0.803-0.533-1.621-0.762-2.445-0.22-0.789-0.455-1.566-0.603-2.384-0.148-0.927-0.246-1.862-0.295-2.801-0.041-0.582-0.178-1.134-0.182-1.726l-5.602-880.953c-0.108-20.61 7.828-40.416 22.069-55.083 14.241-14.663 33.623-22.981 53.893-23.135l1121.367-7.129c20.271-0.106 39.755 7.968 54.181 22.445 14.427 14.482 22.615 34.19 22.768 54.8l5.6 880.952c0.004 0.591-0.126 1.146-0.158 1.728zM1218.442 900.468l-549.368-505.495-542.896 512.44 1092.264-6.945zM1227.39 19.421l-1121.364 7.133c-6.757 0.047-13.218 2.824-17.965 7.712s-7.392 11.488-7.356 18.361l5.227 822.050 565.576-533.845c4.671-4.411 10.799-6.88 17.176-6.92 6.38-0.039 12.54 2.351 17.266 6.699l572.318 526.611-5.226-822.051c-0.051-6.869-2.781-13.438-7.589-18.267s-11.303-7.519-18.062-7.483z" />
<glyph unicode="&#xe913;" glyph-name="arrow_back_ios_24px" horiz-adv-x="569" d="M561.067 833.422l-84.385 83.911-468.859-469.333 469.333-469.333 83.911 83.911-385.422 385.422 385.422 385.422z" />
<glyph unicode="&#xe914;" glyph-name="arrow-right1" d="M542.167 776.836c-16.66 16.663-43.676 16.663-60.338 0s-16.662-43.678 0-60.34l225.832-225.83h-494.328c-23.564 0-42.667-19.102-42.667-42.666 0-23.562 19.103-42.665 42.667-42.665h494.328l-225.832-225.833c-16.662-16.66-16.662-43.679 0-60.339s43.678-16.66 60.338 0l298.67 298.665c16.66 16.666 16.66 43.679 0 60.342l-298.67 298.666z" />
<glyph unicode="&#xe915;" glyph-name="checkquality" d="M512-64c-282.778 0-512 229.222-512 512s229.222 512 512 512c282.778 0 512-229.222 512-512s-229.222-512-512-512zM460.954 243.2l361.984 362.035-72.397 72.397-289.587-289.638-144.845 144.845-72.397-72.397 217.242-217.242z" />
<glyph unicode="&#xe916;" glyph-name="userHeart" d="M785.826 251.943l9.994-8.55 10.105 8.55c11.862 10.093 25.946 18.096 41.443 23.558 15.499 5.462 32.111 8.274 48.886 8.274 16.777 0 33.389-2.812 48.888-8.274 15.497-5.462 29.581-13.466 41.443-23.558s21.271-22.073 27.691-35.258c6.42-13.185 9.724-27.318 9.724-41.591 0-14.27-3.303-28.404-9.724-41.589-6.42-13.187-15.829-25.168-27.691-35.258l-190.765-162.247-190.652 162.247c-23.958 20.382-37.415 48.024-37.415 76.847s13.457 56.467 37.415 76.849c23.958 20.382 56.449 31.832 90.329 31.832s66.374-11.45 90.329-31.832zM454.201 332.075v-386.415h-454.201c0.001 100.391 45.928 196.844 128.055 268.931s194.007 114.153 311.954 117.291l14.193 0.193zM454.201 960c188.211 0 340.652-129.691 340.652-289.81 0-160.121-152.441-289.812-340.652-289.812-188.209 0-340.651 129.692-340.651 289.812s152.442 289.81 340.651 289.81z" />
<glyph unicode="&#xe917;" glyph-name="usercheck" d="M491.704 344.836v-373.844h-491.704c-0.006 53.457 13.185 106.301 38.695 155.025s62.757 92.211 109.265 127.572c46.508 35.361 101.212 61.784 160.479 77.517s121.737 20.412 183.265 13.73zM437.070 394.852c-181.111 0-327.802 126.452-327.802 282.575 0 156.121 146.691 282.573 327.802 282.573s327.803-126.452 327.803-282.573c0-156.123-146.692-282.575-327.803-282.575zM753.564 69.233l193.13 166.484 77.306-66.593-270.436-233.124-193.186 166.531 77.308 66.593 115.878-99.891z" />
<glyph unicode="&#xe918;" glyph-name="heart2" d="M737.882 949.961c152.496 0 276.078-135.665 276.078-325.596 0-379.862-376.471-596.926-501.961-678.326-125.49 81.4-501.961 298.464-501.961 678.326 0 189.931 125.49 325.596 276.078 325.596 93.365 0 175.686-54.266 225.882-108.532 50.196 54.266 132.518 108.532 225.882 108.532z" />
<glyph unicode="&#xe919;" glyph-name="fb" d="M767.5 909.257c-15.429 2.286-68.572 6.857-130.286 6.857-129.143 0-217.714-78.857-217.714-223.429v-124.571h-145.714v-169.143h145.714v-433.712h174.857v433.712h145.143l22.286 169.143h-167.429v108c0 48.571 13.143 82.286 83.429 82.286h89.715v150.857z" />
<glyph unicode="&#xe91a;" glyph-name="instagram" d="M298.385 925.12c54.138 2.356 71.4 2.88 209.308 2.88s155.169-0.567 209.261-2.88c54.093-2.313 91.014-10.473 123.322-22.298 33.83-12.087 64.525-30.982 89.907-55.418 25.85-23.956 45.786-52.931 58.528-84.96 12.55-30.545 21.133-65.455 23.629-116.509 2.49-51.273 3.046-67.593 3.046-197.935 0-130.385-0.602-146.705-3.046-197.888-2.445-51.059-11.078-85.965-23.629-116.512-12.742-32.032-32.71-61.056-58.528-85.050-25.382-24.435-56.077-43.283-89.907-55.328-32.307-11.872-69.229-19.987-123.232-22.342-54.182-2.355-71.443-2.88-209.351-2.88s-155.169 0.57-209.308 2.88c-54 2.31-90.923 10.47-123.231 22.342-33.881 12.045-64.578 30.925-89.954 55.328-25.829 23.974-45.816 52.979-58.569 85.005-12.508 30.547-21.092 65.453-23.585 116.512-2.492 51.271-3.046 67.591-3.046 197.933 0 130.385 0.6 146.705 3.046 197.847s11.077 86.051 23.585 116.596c12.772 32.026 32.775 61.034 58.615 85.004 25.34 24.415 56.006 43.312 89.862 55.375 32.308 11.825 69.231 19.942 123.231 22.298h0.046zM712.845 838.72c-53.536 2.313-69.6 2.793-205.153 2.793s-151.615-0.48-205.154-2.793c-49.523-2.138-76.385-9.949-94.292-16.538-23.677-8.727-40.616-19.069-58.385-35.869-16.844-15.493-29.807-34.355-37.939-55.2-6.97-16.931-15.231-42.328-17.492-89.149-2.446-50.618-2.954-65.804-2.954-193.964s0.508-143.345 2.954-193.965c2.262-46.822 10.523-72.218 17.492-89.146 8.123-20.819 21.092-39.712 37.939-55.2 16.385-15.93 36.369-28.192 58.385-35.872 17.907-6.586 44.769-14.4 94.292-16.538 53.539-2.31 69.554-2.79 205.154-2.79 135.597 0 151.617 0.48 205.153 2.79 49.523 2.138 76.384 9.952 94.291 16.538 23.68 8.73 40.621 19.072 58.387 35.872 16.845 15.488 29.818 34.381 37.939 55.2 6.97 16.928 15.232 42.323 17.491 89.146 2.445 50.62 2.957 65.805 2.957 193.965s-0.512 143.345-2.957 193.964c-2.259 46.822-10.522 72.218-17.491 89.149-9.229 22.385-20.173 38.4-37.939 55.2-16.39 15.924-36.339 28.18-58.387 35.869-17.907 6.589-44.768 14.4-94.291 16.538zM442.846 300.029c36.215-14.25 76.541-16.176 114.089-5.442s69.99 33.46 91.788 64.297c21.792 30.836 31.584 67.871 27.712 104.777-3.878 36.906-21.19 71.395-48.973 97.576-17.713 16.735-39.129 29.55-62.708 37.521s-48.734 10.9-73.654 8.576c-24.92-2.324-48.985-9.843-70.463-22.015s-39.833-28.696-53.746-48.38c-13.913-19.685-23.036-42.041-26.713-65.46s-1.817-47.316 5.447-69.973c7.264-22.657 19.751-43.51 36.562-61.056s37.528-31.351 60.659-40.42zM323.169 622.458c24.232 22.91 52.999 41.084 84.66 53.482s65.594 18.781 99.863 18.781c34.269 0 68.203-6.382 99.863-18.781s60.426-30.572 84.662-53.482c24.23-22.91 43.45-50.109 56.563-80.042s19.866-62.016 19.866-94.416c0-32.4-6.752-64.483-19.866-94.416s-32.333-57.132-56.563-80.042c-48.941-46.272-115.316-72.262-184.525-72.262s-135.585 25.99-184.523 72.262c-48.939 46.269-76.432 109.023-76.432 174.458s27.493 128.189 76.432 174.458zM826.522 657.978c6.003 5.356 10.816 11.796 14.138 18.94 3.328 7.143 5.101 14.845 5.222 22.649s-1.414 15.551-4.518 22.783c-3.104 7.232-7.712 13.802-13.549 19.321s-12.787 9.874-20.435 12.808c-7.648 2.934-15.846 4.387-24.096 4.273-8.256-0.114-16.403-1.792-23.962-4.936-7.552-3.144-14.368-7.689-20.032-13.366-11.014-11.041-17.043-25.708-16.813-40.884 0.237-15.177 6.714-29.67 18.067-40.403s26.682-16.861 42.739-17.082c16.051-0.221 31.558 5.482 43.238 15.897z" />
<glyph unicode="&#xe91b;" glyph-name="location" d="M515.58 936.727c-101.806-0.12-199.408-40.616-271.396-112.604s-112.483-169.59-112.604-271.396c-0.122-83.195 27.054-164.133 77.358-230.4 0 0 10.473-13.791 12.183-15.779l294.458-347.276 294.6 347.448c1.536 1.853 12.041 15.607 12.041 15.607l0.037 0.102c50.278 66.239 77.442 147.139 77.321 230.298-0.121 101.806-40.616 199.408-112.603 271.396s-169.588 112.484-271.397 112.604zM515.58 413.091c-27.617 0-54.615 8.187-77.578 23.533-22.963 15.341-40.86 37.153-51.429 62.666-10.569 25.515-13.334 53.592-7.946 80.678s18.687 51.968 38.215 71.496c19.529 19.529 44.409 32.828 71.496 38.216s55.163 2.622 80.678-7.946c25.513-10.569 47.325-28.466 62.666-51.429 15.346-22.963 23.533-49.96 23.533-77.578-0.047-37.020-14.774-72.509-40.951-98.686s-61.665-40.904-98.685-40.951z" />
<glyph unicode="&#xe91c;" glyph-name="phone" d="M842.83 489.001h81.92c0 210.125-158.638 368.599-369.050 368.599v-81.92c166.38 0 287.13-120.545 287.13-286.679zM556.11 611.83c86.139 0 122.88-36.741 122.88-122.878h81.92c0 132.094-72.704 204.798-204.8 204.798v-81.92zM696.275 388.887c-7.868 7.152-18.211 10.969-28.844 10.637-10.629-0.328-20.718-4.776-28.131-12.399l-98.017-100.803c-23.593 4.506-71.025 19.292-119.849 67.994-48.823 48.865-63.609 96.42-67.992 119.849l100.719 98.057c7.639 7.408 12.091 17.497 12.419 28.131s-3.494 20.978-10.658 28.844l-151.346 166.42c-7.166 7.891-17.126 12.677-27.764 13.342s-21.117-2.843-29.211-9.779l-88.883-76.227c-7.082-7.107-11.308-16.566-11.878-26.583-0.614-10.24-12.329-252.803 175.759-440.974 164.084-164.045 369.621-176.046 426.228-176.046 8.274 0 13.353 0.246 14.705 0.328 10.019 0.557 19.472 4.805 26.542 11.919l76.186 88.924c6.943 8.086 10.457 18.563 9.802 29.2-0.659 10.637-5.439 20.603-13.324 27.775l-166.461 151.388z" />
<glyph unicode="&#xe91d;" glyph-name="comillas" d="M257.913 47.709c-47.786 0-86.885 9.775-117.295 29.324s-55.389 44.53-74.938 74.938c-23.893 34.755-39.098 72.765-45.614 114.036s-9.775 74.938-9.775 101.004c0 106.434 27.151 203.094 81.454 289.978s139.016 157.479 254.138 211.782l29.324-58.647c-67.335-28.237-125.983-72.766-175.942-133.585-47.786-60.819-71.68-122.725-71.68-185.716 0-26.065 3.258-48.873 9.775-68.422 34.754 28.238 74.938 42.356 120.553 42.356 56.475 0 105.348-18.463 146.618-55.389 41.27-36.925 61.906-87.971 61.906-153.135 0-60.821-20.635-110.778-61.906-149.876s-90.143-58.647-146.618-58.647zM811.804 47.709c-47.788 0-86.886 9.775-117.295 29.324s-55.389 44.53-74.938 74.938c-23.892 34.755-39.098 72.765-45.615 114.036s-9.775 74.938-9.775 101.004c0 106.434 27.15 203.094 81.455 289.978s139.017 157.479 254.138 211.782l29.324-58.647c-67.337-28.237-125.985-72.766-175.942-133.585-47.788-60.819-71.68-122.725-71.68-185.716 0-26.065 3.258-48.873 9.775-68.422 34.755 28.238 74.938 42.356 120.553 42.356 56.474 0 105.346-18.463 146.618-55.389 41.272-36.925 61.905-87.971 61.905-153.135 0-60.821-20.634-110.778-61.905-149.876s-90.145-58.647-146.618-58.647z" />
<glyph unicode="&#xe91e;" glyph-name="arrow-right11" d="M0 435.952c0 22.871 16.996 41.773 39.046 44.764l6.13 0.413 794.142-0.036-286.9 285.728c-17.68 17.604-17.742 46.209-0.137 63.889 16.004 16.073 41.099 17.585 58.812 4.501l5.078-4.363 364.424-362.858c2.331-2.32 4.355-4.832 6.072-7.484 0.488-0.798 0.982-1.615 1.446-2.448 0.434-0.714 0.819-1.456 1.187-2.205 0.512-1.091 1.012-2.218 1.464-3.368 0.367-0.887 0.675-1.749 0.952-2.618 0.337-1.078 0.657-2.226 0.94-3.392 0.205-0.814 0.367-1.597 0.512-2.384 0.199-1.17 0.373-2.382 0.494-3.607 0.102-0.935 0.169-1.861 0.205-2.788 0.006-0.563 0.018-1.151 0.018-1.742l-0.024-1.75c-0.030-0.887-0.096-1.773-0.181-2.656l0.205 4.406c0-2.851-0.265-5.64-0.771-8.344-0.114-0.646-0.253-1.309-0.41-1.969-0.319-1.36-0.693-2.67-1.12-3.954-0.205-0.638-0.452-1.319-0.711-1.996-0.53-1.36-1.102-2.655-1.735-3.918-0.295-0.593-0.62-1.215-0.964-1.83-0.566-1.004-1.15-1.957-1.765-2.886-0.434-0.658-0.916-1.342-1.416-2.016l-0.392-0.521c-1.217-1.59-2.536-3.097-3.951-4.51l-0.054-0.042-364.424-362.915c-17.677-17.607-46.281-17.547-63.887 0.133-16.005 16.071-17.412 41.171-4.252 58.826l4.385 5.060 286.782 285.671-794.022 0.036c-24.95 0-45.176 20.226-45.176 45.176z" />
<glyph unicode="&#xe91f;" glyph-name="lapiz" d="M747.454 929.956c70.148 4.384 139.319-19.972 191.44-67.709 47.737-52.121 72.093-121.292 68.195-191.923v-454.965c4.385-70.63-20.458-139.802-67.708-191.923-52.122-47.737-121.779-72.093-191.927-67.708h-454.968c-70.632-4.385-139.803 19.972-191.925 67.708-47.737 52.122-72.093 121.293-67.709 191.923v454.965c-4.384 70.631 19.972 139.802 67.709 191.923 52.122 47.737 121.293 72.093 191.925 67.709h454.968zM734.789 707.344c-30.201 30.201-78.914 30.201-109.115 0l-32.636-33.123c-4.871-4.871-4.871-13.152 0-18.023 0 0 0.958-0.95 2.659-2.642l11.981-11.916c6.93-6.896 15.583-15.507 24.269-24.167l29.458-29.443c6.144-6.173 10.222-10.309 10.547-10.745 5.358-5.844 8.77-13.637 8.77-22.407 0-17.536-14.128-32.15-32.15-32.15-8.283 0-16.077 3.412-21.435 8.77l-81.349 80.861c-3.899 3.897-10.715 3.897-14.614 0l-232.355-232.354c-16.075-16.073-25.33-37.508-25.818-60.401l-2.922-115.449c0-6.331 1.949-12.175 6.332-16.56s10.229-6.821 16.562-6.821h114.472c23.384 0 45.791 9.256 62.841 25.816l327.83 328.803c29.714 30.204 29.714 78.914 0 108.628l-63.327 63.325z" />
<glyph unicode="&#xe920;" glyph-name="bullet" d="M735.527 820.364c171.526 0 272.763-82.11 272.763-222.665h-210.429v-1.435c-97.662 0-176.832-64.213-176.832-143.423s79.171-143.425 176.832-143.425h210.429v-12.906c0-138.764-101.236-220.874-272.763-220.874h-449.154c-171.527 0-272.763 82.109-272.763 220.874v302.981c0 138.763 101.236 220.872 272.763 220.872h449.154zM971.155 536.026c20.508 0 37.134-13.485 37.134-30.117v-104.699c-0.239-16.555-16.725-29.926-37.134-30.121h-169.317c-49.441-0.54-92.675 26.916-103.889 65.977-5.616 24.244 2.268 49.264 21.538 68.354 19.27 19.087 47.957 30.291 78.373 30.608h173.295zM821.732 487.619h-16.356c-10.045 0.096-19.717-3.072-26.857-8.797-7.143-5.725-11.165-13.532-11.165-21.678 0-17.091 16.952-30.999 38.021-31.195h16.356c20.998 0 38.018 13.805 38.018 30.835s-17.020 30.835-38.018 30.835zM529.96 659.371h-280.722c-20.826 0.001-37.777-13.588-38.019-30.478 0-17.089 16.95-30.998 38.019-31.194h280.722c20.995 0 38.018 13.806 38.018 30.836s-17.023 30.836-38.018 30.836z" />
<glyph unicode="&#xe921;" glyph-name="cuadrados" d="M313.046 376.335c68.753 0 123.855-55.636 123.855-124.877v-166.232c0-68.754-55.102-124.829-123.855-124.829h-164.815c-68.267 0-123.855 56.075-123.855 124.829v166.232c0 69.241 55.588 124.877 123.855 124.877h164.815zM875.761 376.335c68.268 0 123.856-55.636 123.856-124.877v-166.232c0-68.754-55.589-124.829-123.856-124.829h-164.813c-68.754 0-123.856 56.075-123.856 124.829v166.232c0 69.241 55.102 124.877 123.856 124.877h164.813zM313.046 935.621c68.753 0 123.855-56.076 123.855-124.879v-166.23c0-69.243-55.102-124.832-123.855-124.832h-164.815c-68.267 0-123.855 55.589-123.855 124.832v166.23c0 68.803 55.588 124.879 123.855 124.879h164.815zM875.761 935.621c68.268 0 123.856-56.076 123.856-124.879v-166.23c0-69.243-55.589-124.832-123.856-124.832h-164.813c-68.754 0-123.856 55.589-123.856 124.832v166.23c0 68.803 55.102 124.879 123.856 124.879h164.813z" />
<glyph unicode="&#xe922;" glyph-name="users" d="M9.479-54.517c0 100.585 39.958 197.052 111.082 268.177s167.592 111.081 268.177 111.081c100.585 0 197.052-39.956 268.177-111.081s111.081-167.592 111.081-268.177h-758.518zM388.739 372.15c-157.156 0-284.445 127.289-284.445 284.444s127.289 284.444 284.445 284.444c157.156 0 284.444-127.289 284.444-284.444s-127.289-284.444-284.444-284.444zM737.801 266.288c72.516-18.637 137.304-59.679 185.139-117.276 47.838-57.6 76.282-128.822 81.289-203.529h-141.414c0 123.733-47.408 236.373-125.013 320.805zM641.894 374.187c39.726 35.533 71.498 79.061 93.23 127.73 21.732 48.666 32.933 101.379 32.873 154.678 0.102 64.783-16.469 128.503-48.117 185.030 53.695-10.789 101.996-39.84 136.695-82.214s53.655-95.455 53.643-150.225c0.014-33.775-7.194-67.166-21.137-97.929-13.946-30.763-34.304-58.192-59.713-80.444s-55.282-38.818-87.615-48.583c-32.333-9.768-66.381-12.51-99.86-8.044z" />
<glyph unicode="&#xe923;" glyph-name="quality" d="M261.021 698.979v200.784c0 13.313 5.288 26.080 14.702 35.494s22.181 14.702 35.495 14.702h652.547c13.315 0 26.082-5.289 35.497-14.702 9.412-9.414 14.7-22.181 14.7-35.494v-652.549c0-13.312-5.289-26.082-14.7-35.494-9.415-9.415-22.182-14.703-35.497-14.703h-200.782v-200.433c0-27.907-22.54-50.546-50.549-50.546h-651.845c-6.64-0.006-13.216 1.295-19.351 3.834s-11.711 6.261-16.406 10.957c-4.695 4.695-8.418 10.27-10.956 16.405s-3.841 12.713-3.834 19.351l0.151 651.848c0 27.908 22.538 50.546 50.548 50.546h200.282zM361.412 698.979h351.021c27.91 0 50.549-22.538 50.549-50.546v-351.021h150.588v552.156h-552.159v-150.588zM336.465 146.824l283.91 283.958-70.978 70.978-212.932-212.983-106.566 106.517-70.977-70.978 177.543-177.492z" />
<glyph unicode="&#xe924;" glyph-name="settings" d="M408.067 926.087h207.864c217.515 0 393.846-176.331 393.846-393.846v-169.574c0-217.515-176.331-393.846-393.846-393.846h-207.864c-217.515 0-393.846 176.331-393.846 393.846v169.574c0 217.515 176.331 393.846 393.846 393.846z" />
<glyph unicode="&#xe925;" glyph-name="settings---copia" d="M408.067 926.087h207.864c217.515 0 393.846-176.331 393.846-393.846v-169.574c0-217.515-176.331-393.846-393.846-393.846h-207.864c-217.515 0-393.846 176.331-393.846 393.846v169.574c0 217.515 176.331 393.846 393.846 393.846z" />
</font>
</defs>
</svg>
